# xmcd
#
# Track frame offsets:
#	150
#	10497
#	20575
#	31792
#	41825
#	52700
#	61900
#	75552
#	89442
#	99220
#	111962
#	127240
#	145202
#	162287
#
# Disc length: 2212 seconds
#
# Revision: 1
# Processed by: cddbd v1.4PL0 Copyright (c) Steve Scherf et al.
# Submitted via: audiograbber 1.81.01
#
DISCID=b008a20e
DTITLE=T. Valentine - Hello Lucille Are You a Lesbian?
DYEAR=1900
DGENRE=
TTITLE0=Teen-Age Jump
TTITLE1=Little Lu-Lu Frog
TTITLE2=Betty Sue
TTITLE3=Do the Do
TTITLE4=Massius Ray
TTITLE5=Betty Sue
TTITLE6=Black Power Part One
TTITLE7=Black Power Part Two
TTITLE8=Hello Lucille Are You a Lesbian?
TTITLE9=Betty Sue
TTITLE10=I Want You To Have My Baby
TTITLE11=Wake Up Wake Up Black Man
TTITLE12=Shake Your Funky A-S-S
TTITLE13=The Vampire Radio Spot
EXTD=
EXTT0=
EXTT1=
EXTT2=
EXTT3=
EXTT4=
EXTT5=
EXTT6=
EXTT7=
EXTT8=
EXTT9=
EXTT10=
EXTT11=
EXTT12=
EXTT13=
PLAYORDER=
